<?xml version="1.0" encoding="UTF-8"?>
<svg width="512" height="512" viewBox="0 0 512 512" xmlns="http://www.w3.org/2000/svg">
  <!-- Background -->
  <rect width="512" height="512" rx="128" fill="#0a192f"/>
  
  <!-- Letter S -->
  <path d="M320 176c0-26.51-21.49-48-48-48h-96c-26.51 0-48 21.49-48 48v32c0 26.51 21.49 48 48 48h96c8.84 0 16 7.16 16 16v32c0 8.84-7.16 16-16 16h-96c-8.84 0-16-7.16-16-16v-16h-32v16c0 26.51 21.49 48 48 48h96c26.51 0 48-21.49 48-48v-32c0-26.51-21.49-48-48-48h-96c-8.84 0-16-7.16-16-16v-32c0-8.84 7.16-16 16-16h96c8.84 0 16 7.16 16 16v16h32v-16z" 
        fill="#64ffda"/>
  
  <!-- Accent elements -->
  <circle cx="256" cy="128" r="8" fill="#8892b0"/>
  <circle cx="256" cy="384" r="8" fill="#8892b0"/>
</svg>
