<?xml version="1.0" encoding="UTF-8"?>
<svg width="512" height="512" viewBox="0 0 512 512" xmlns="http://www.w3.org/2000/svg">
  <rect width="512" height="512" rx="128" fill="#0a192f"/>
  <path d="M 369.449 170.478 C 369.449 135.478 343.906 107.106 312.395 107.106 L 198.287 107.106 C 166.777 107.106 141.233 135.478 141.233 170.478 L 141.233 212.726 C 141.233 247.726 166.777 276.099 198.287 276.099 L 312.395 276.099 C 322.903 276.099 331.413 285.552 331.413 297.223 L 331.413 339.471 C 331.413 351.142 322.903 360.595 312.395 360.595 L 198.287 360.595 C 187.78 360.595 179.269 351.142 179.269 339.471 L 179.269 318.347 L 141.233 318.347 L 141.233 339.471 C 141.233 374.471 166.777 402.843 198.287 402.843 L 312.395 402.843 C 343.906 402.843 369.449 374.471 369.449 339.471 L 369.449 297.223 C 369.449 262.223 343.906 233.851 312.395 233.851 L 198.287 233.851 C 187.78 233.851 179.269 224.397 179.269 212.726 L 179.269 170.478 C 179.269 158.807 187.78 149.354 198.287 149.354 L 312.395 149.354 C 322.903 149.354 331.413 158.807 331.413 170.478 L 331.413 191.602 L 369.449 191.602 L 369.449 170.478 Z" fill="#64ffda" style=""></path>
</svg>
